<svg width="662" height="658" viewBox="0 0 662 658" fill="none" xmlns="http://www.w3.org/2000/svg">
<g id="undraw Ride a bicycle 2yok 1">
<path id="Vector" opacity="0.1" d="M232.79 539.86C232.789 545.994 232.314 552.119 231.37 558.18C221.77 557.49 211.85 556.49 202.13 555.49C204.289 543.599 204.021 531.394 201.34 519.61C210.81 517.61 220.48 515.7 229.92 513.97C231.833 522.467 232.795 531.15 232.79 539.86Z" fill="black"/>
<path id="Vector 2" opacity="0.1" d="M206.21 465.37L184.85 484.92C181.067 480.064 176.791 475.614 172.09 471.64L192.03 450.81C197.164 455.249 201.908 460.12 206.21 465.37Z" fill="black"/>
<path id="Vector 3" opacity="0.1" d="M116.34 552.27C123.415 552.27 129.15 546.535 129.15 539.46C129.15 532.385 123.415 526.65 116.34 526.65C109.265 526.65 103.53 532.385 103.53 539.46C103.53 546.535 109.265 552.27 116.34 552.27Z" fill="black"/>
<g id="backwheel">
<path id="Vector 4" d="M122.725 640.778L116.455 542.838L116.325 542.628L110.005 544.828L80.925 629.678L34.675 596.888L108.345 543.478L108.415 543.268L108.835 543.118L113.585 539.668L36.345 496.358L17.425 517.158L20.425 536.658L109.245 538.278V540.278L18.765 538.658L15.345 516.518L41.245 488.058L79.995 442.858L80.685 444.728L88.885 435.728L119.345 441.188V439.978L121.345 440.038V441.548L166.705 449.668L124.415 534.278L118.245 538.748V539.248V539.808L216.045 505.728L204.435 596.938L121.435 544.068L118.515 542.428L167.455 621.308L122.725 640.778ZM118.725 546.438L124.575 637.818L164.625 620.438L118.725 546.438ZM38.145 596.868L79.935 626.498L107.275 546.758L38.145 596.868ZM120.465 541.208L122.555 542.378L202.905 593.578L213.705 508.708L120.465 541.208ZM113.365 534.008L115.875 538.058L116.315 537.738L119.315 443.208L89.575 437.888L81.415 446.888L113.365 534.008ZM37.945 494.948L112.785 536.948L111.485 534.818L79.905 448.548L42.715 489.418L37.945 494.948ZM121.345 443.558L118.345 536.278L122.865 532.998L163.775 451.178L121.345 443.558Z" fill="#535461"/>
<path id="Vector 5" d="M232.415 513.738C228.405 495.919 220.285 479.283 208.705 465.158C204.406 459.909 199.666 455.038 194.535 450.598C174.809 433.567 149.986 423.568 123.962 422.17C97.938 420.771 72.187 428.053 50.749 442.873C29.311 457.693 13.401 479.211 5.515 504.05C-2.371 528.89 -1.78601 555.645 7.17799 580.116C16.142 604.587 32.978 625.39 55.042 639.258C77.107 653.127 103.152 659.277 129.09 656.743C155.028 654.208 179.39 643.134 198.353 625.257C217.317 607.379 229.807 583.712 233.865 557.968C234.809 551.907 235.284 545.783 235.285 539.648C235.292 530.932 234.329 522.242 232.415 513.738ZM117.225 628.088C98.993 628.069 81.209 622.435 66.292 611.953C51.374 601.47 40.047 586.648 33.851 569.501C27.655 552.354 26.89 533.715 31.66 516.118C36.43 498.521 46.505 482.82 60.513 471.15C74.521 459.48 91.783 452.408 109.953 450.895C128.122 449.381 146.316 453.501 162.062 462.693C177.807 471.884 190.34 485.703 197.956 502.268C205.571 518.834 207.9 537.343 204.625 555.278C200.875 575.722 190.076 594.203 174.107 607.506C158.137 620.809 138.01 628.093 117.225 628.088Z" fill="#535461"/>
</g>
<path id="Vector 6" d="M117.225 552.058C124.3 552.058 130.035 546.323 130.035 539.248C130.035 532.174 124.3 526.438 117.225 526.438C110.15 526.438 104.415 532.174 104.415 539.248C104.415 546.323 110.15 552.058 117.225 552.058Z" fill="#535461"/>
<path id="Vector 7" opacity="0.1" d="M540.13 551.07C547.205 551.07 552.94 545.335 552.94 538.26C552.94 531.185 547.205 525.45 540.13 525.45C533.055 525.45 527.32 531.185 527.32 538.26C527.32 545.335 533.055 551.07 540.13 551.07Z" fill="black"/>
<g id="frontwheel">
<g id="Group 6">
<g id="Group 3">
<path id="frontwires" d="M549.865 636.818L543.605 538.918L543.475 538.708L537.155 540.908L508.065 625.718L461.815 592.918L535.505 539.508L535.575 539.298L535.995 539.148L540.745 535.698L463.505 492.388L444.575 513.188L447.575 532.688L536.375 534.268V536.268L445.895 534.648L442.495 512.538L468.385 484.088L507.105 438.918L507.795 440.788L515.995 431.788L546.535 437.258V436.048L548.535 436.108V437.618L593.895 445.738L551.565 530.388L545.395 534.858V535.358V535.918L643.205 501.838L631.595 593.048L548.595 540.178L545.675 538.538L594.615 617.428L549.865 636.818ZM545.865 542.478L551.715 633.858L591.765 616.478L545.865 542.478ZM465.295 592.918L507.085 622.548L534.425 542.808L465.295 592.918ZM547.615 537.258L549.705 538.428L630.055 589.628L640.855 504.758L547.615 537.258ZM540.515 530.058L543.025 534.108L543.465 533.788L546.465 439.258L516.725 433.918L508.565 442.918L540.515 530.058ZM465.125 491.008L539.965 533.008L538.665 530.878L507.085 444.608L469.885 485.488L465.125 491.008ZM548.495 439.618L545.495 532.308L550.015 529.028L590.925 447.208L548.495 439.618Z" fill="#535461"/>
</g>
</g>
<g id="Group 4">
<g id="Group 2">
<path id="front whell" d="M543.757 422C533.144 421.988 522.578 423.415 512.347 426.24C507.071 427.695 501.904 429.523 496.887 431.71C470.157 443.297 448.674 464.387 436.594 490.898C424.514 517.41 422.697 547.459 431.492 575.233C440.287 603.008 459.071 626.533 484.209 641.259C509.348 655.984 539.054 660.863 567.582 654.952C596.109 649.04 621.431 632.759 638.648 609.257C655.865 585.755 663.754 556.702 660.789 527.72C657.823 498.738 644.215 471.885 622.595 452.356C600.975 432.828 572.881 422.012 543.747 422H543.757ZM543.357 628.09C523.076 628.082 503.408 621.137 487.62 608.407C471.831 595.678 460.872 577.931 456.562 558.113C452.252 538.295 454.851 517.599 463.928 499.463C473.004 481.326 488.011 466.84 506.457 458.41C511.149 456.262 516.021 454.532 521.017 453.24C533.229 450.07 545.977 449.537 558.411 451.678C570.845 453.818 582.681 458.581 593.13 465.652C603.58 472.722 612.404 481.937 619.015 492.683C625.627 503.429 629.873 515.46 631.473 527.975C633.073 540.49 631.989 553.202 628.293 565.265C624.598 577.329 618.375 588.467 610.04 597.939C601.704 607.41 591.447 614.998 579.951 620.196C568.455 625.395 555.984 628.086 543.367 628.09H543.357Z" fill="#535461"/>
</g>
</g>
</g>
<path id="Vector 8" d="M541.002 549.672C548.077 549.672 553.812 543.937 553.812 536.862C553.812 529.787 548.077 524.052 541.002 524.052C533.927 524.052 528.192 529.787 528.192 536.862C528.192 543.937 533.927 549.672 541.002 549.672Z" fill="#535461"/>
<g id="manonbike">
<path id="Vector 9" opacity="0.1" d="M343.58 520.85C338.584 522.142 333.712 523.872 329.02 526.02L319.46 499.31C324.477 497.123 329.644 495.295 334.92 493.84L343.58 520.85Z" fill="black"/>
<path id="Vector 10" d="M253.607 471.624L211.231 429.806L197.989 443.225L240.365 485.043L253.607 471.624Z" fill="#EAA78F"/>
<path id="Vector 11" d="M222 409.937C222 409.937 246.604 396.862 256.113 388.445C261.837 383.402 267.991 378.876 274.504 374.921L305.371 355.998L369.885 351L372.862 361.996C372.862 361.996 377.825 377.989 328.199 391.984C278.573 405.978 253.76 427.97 253.76 427.97C253.76 427.97 222 438.925 222 409.937Z" fill="#DB8B8B"/>
<path id="Vector 12" d="M317 360.091C317 360.091 364 361.083 376 371L370 251H305L317 360.091Z" fill="#ABB1D1"/>
<path id="Vector 13" d="M355.639 286.479C355.639 286.479 471.599 282.447 473.965 297.778C476.331 313.11 358.005 306.648 358.005 306.648C358.005 306.648 348.543 296.962 355.639 286.479Z" fill="#535461"/>
<path id="Vector 14" d="M431 169.935L428.695 199.829C428.43 203.615 428.478 207.418 428.84 211.196C429.14 214.542 428.84 220.4 425.644 229.335C421.54 240.749 419.42 252.812 419.378 264.977V299L397.101 295.029C397.101 295.029 398.07 247.374 394.196 239.432C390.322 231.489 397.101 161 397.101 161L431 169.935Z" fill="#DB8B8B"/>
<path id="Vector 15" opacity="0.1" d="M412.941 48.093C412.944 51.338 412.512 54.567 411.659 57.689C409.031 58.282 406.291 58.022 403.811 56.945C400.178 55.466 397.061 52.921 393.574 51.09C383.754 45.94 372.07 46.956 361.191 48.656C355.791 49.501 349.662 50.286 345.418 46.725C345.272 46.606 345.132 46.478 345 46.343C345.224 37.005 349.021 28.142 355.554 21.7039C362.088 15.2655 370.824 11.7788 379.84 12.0109C388.856 12.243 397.413 16.1749 403.63 22.9415C409.847 29.708 413.214 38.755 412.989 48.093H412.941Z" fill="black"/>
<path id="Vector 16" d="M348.98 551.49H288.98V570.49H348.98V551.49Z" fill="#EAA78F"/>
<path id="Vector 17" d="M220.954 404L195 422.03L271.002 489C271.002 489 282.168 481.788 276.291 473.545C276.291 473.545 256.703 456.03 255.723 431.303L249.847 423.061H246.527C240.913 423.061 235.437 421.228 230.856 417.813C226.275 414.399 222.815 409.572 220.954 404Z" fill="#ABB1D1"/>
<path id="Vector 18" d="M259 344H238V528H259V344Z" fill="#EAA78F"/>
<path id="Vector 19" d="M257.079 327.524C254.206 327.296 251.347 326.901 248.517 326.341C237.416 324.156 209.427 319.575 201.898 327.352C192.451 337.061 195.6 354.061 220.804 356.488C246.008 358.915 289.33 352.443 298 342.724C298 342.684 282.323 329.516 257.079 327.524Z" fill="#535461"/>
<path id="Vector 20" d="M254 394.018L469.886 325L477 342.054L255.581 420L254 394.018Z" fill="#EAA78F"/>
<path id="Vector 21" d="M317 503.317L474.225 345L483 358.051L332.955 518L317 503.317Z" fill="#EAA78F"/>
<path id="Vector 22" d="M543 530.426L531.901 537L454.468 312.729L451 302.693L469.243 292L473.812 306.771L543 530.426Z" fill="#EAA78F"/>
<path id="Vector 23" d="M356.135 324.891L465.426 286C465.426 286 484.573 288.481 477.386 305.032L367.309 338.95C367.309 338.95 350.564 340.604 356.135 324.891Z" fill="#535461"/>
<path id="Vector 24" d="M125.144 537.319C125.144 537.319 291.821 491.491 305.308 508.978C318.794 526.466 333.084 549.817 291.058 558.15C249.031 566.482 122 543.974 122 543.974L125.144 537.319Z" fill="#EAA78F"/>
<path id="Vector 25" d="M120 528.687L245.01 394L249 425.204L126.367 541L120 528.687Z" fill="#EAA78F"/>
<path id="Vector 26" d="M314.5 551C328.583 551 340 539.136 340 524.5C340 509.864 328.583 498 314.5 498C300.417 498 289 509.864 289 524.5C289 539.136 300.417 551 314.5 551Z" fill="#535461"/>
<path id="Vector 27" d="M316.687 395.596L308.058 446.035C306.97 452.769 305.301 459.39 303.07 465.82C298.012 480.029 301.244 499.948 303.698 510.815C304.786 515.613 305.694 518.648 305.694 518.648L279.756 533L271.775 526.849V522.748L270.778 431.508C264.792 417.156 266.787 395.627 270.778 387.426C271.912 384.731 272.71 381.899 273.152 378.999C275.147 368.009 275.766 352.57 275.766 352.57C275.766 352.57 291.727 324.89 310.682 343.343C317.665 350.14 320.318 359.028 320.877 367.537C321.855 382.105 316.687 395.596 316.687 395.596Z" fill="#DB8B8B"/>
<path id="Vector 28" d="M355.021 342.257C344.403 348.044 334.37 354.889 325.066 362.694C309.091 375.978 269.151 377 269.151 377V361.672C270.149 343.279 253.175 322.842 230.21 265.617C215.542 229.076 219.606 208.393 224.458 198.175C227.214 192.401 230.21 190 230.21 190L355.021 214.525L359.484 228.217L369 257.443C369 257.443 334.053 259.486 328.062 262.552C322.071 265.617 326.065 293.208 326.065 293.208C320.074 321.82 355.021 342.257 355.021 342.257Z" fill="#ABB1D1"/>
<g id="Vector 29">
<mask id="path-31-inside-1" fill="white">
<path d="M443.374 120.049C440.789 140.89 439.927 167.158 439.927 167.158C417.146 185.592 399.317 162.037 399.317 162.037C377.803 168.008 367.691 187.476 362.926 204.466C360.374 213.656 358.957 223.143 358.707 232.701C358.707 232.701 352.685 237.821 341.591 238.845C331.102 239.757 316.066 236.93 297.296 222.46C258.667 192.761 224 200.953 224 200.953C224 200.953 230.933 159.989 246.781 147.7C262.629 135.411 274.515 120.049 294.325 72.94C314.135 25.831 354.745 37.096 354.745 37.096C354.745 37.096 356.726 27.879 393.374 37.096C402.3 39.515 410.563 44.041 417.512 50.318C437.114 67.359 446.623 93.791 443.374 120.049Z"/>
</mask>
<path d="M443.374 120.049C440.789 140.89 439.927 167.158 439.927 167.158C417.146 185.592 399.317 162.037 399.317 162.037C377.803 168.008 367.691 187.476 362.926 204.466C360.374 213.656 358.957 223.143 358.707 232.701C358.707 232.701 352.685 237.821 341.591 238.845C331.102 239.757 316.066 236.93 297.296 222.46C258.667 192.761 224 200.953 224 200.953C224 200.953 230.933 159.989 246.781 147.7C262.629 135.411 274.515 120.049 294.325 72.94C314.135 25.831 354.745 37.096 354.745 37.096C354.745 37.096 356.726 27.879 393.374 37.096C402.3 39.515 410.563 44.041 417.512 50.318C437.114 67.359 446.623 93.791 443.374 120.049Z" fill="white"/>
<path d="M443.374 120.049L444.366 120.172L444.366 120.172L443.374 120.049ZM439.927 167.158L440.556 167.935L440.911 167.648L440.926 167.191L439.927 167.158ZM399.317 162.037L400.114 161.433L399.704 160.892L399.05 161.073L399.317 162.037ZM362.926 204.466L361.963 204.196L361.962 204.198L362.926 204.466ZM358.707 232.701L359.355 233.463L359.695 233.174L359.707 232.727L358.707 232.701ZM341.591 238.845L341.678 239.841L341.683 239.841L341.591 238.845ZM297.296 222.46L297.907 221.668L297.905 221.667L297.296 222.46ZM224 200.953L223.014 200.786L222.762 202.273L224.23 201.926L224 200.953ZM354.745 37.096L354.478 38.0596L355.5 38.3431L355.723 37.3061L354.745 37.096ZM393.374 37.096L393.636 36.1308L393.627 36.1284L393.618 36.1262L393.374 37.096ZM417.512 50.318L416.842 51.0601L416.849 51.0664L416.856 51.0727L417.512 50.318ZM442.382 119.926C441.085 130.378 440.222 142.18 439.683 151.36C439.413 155.952 439.224 159.892 439.103 162.685C439.042 164.081 438.998 165.19 438.97 165.951C438.955 166.331 438.945 166.624 438.938 166.823C438.934 166.922 438.932 166.997 438.93 167.048C438.929 167.073 438.929 167.093 438.928 167.106C438.928 167.112 438.928 167.117 438.928 167.12C438.928 167.122 438.928 167.123 438.928 167.124C438.928 167.124 438.928 167.125 438.928 167.125C438.928 167.125 438.928 167.125 439.927 167.158C440.926 167.191 440.926 167.191 440.926 167.191C440.926 167.19 440.926 167.19 440.926 167.19C440.927 167.189 440.927 167.188 440.927 167.186C440.927 167.183 440.927 167.178 440.927 167.172C440.927 167.16 440.928 167.141 440.929 167.116C440.931 167.066 440.933 166.991 440.937 166.893C440.944 166.696 440.954 166.405 440.968 166.026C440.997 165.269 441.041 164.163 441.101 162.771C441.222 159.987 441.41 156.058 441.679 151.477C442.218 142.314 443.078 130.561 444.366 120.172L442.382 119.926ZM439.298 166.381C433.74 170.878 428.542 172.772 423.892 173.138C419.235 173.505 415.051 172.345 411.52 170.612C407.984 168.878 405.126 166.578 403.146 164.703C402.159 163.768 401.395 162.943 400.88 162.355C400.623 162.061 400.429 161.826 400.3 161.667C400.235 161.588 400.187 161.527 400.156 161.488C400.141 161.468 400.13 161.453 400.123 161.444C400.119 161.44 400.117 161.436 400.115 161.435C400.115 161.434 400.114 161.433 400.114 161.433C400.114 161.433 400.114 161.433 400.114 161.433C400.114 161.433 400.114 161.433 399.317 162.037C398.52 162.641 398.52 162.641 398.52 162.642C398.521 162.642 398.521 162.643 398.522 162.643C398.523 162.644 398.524 162.646 398.525 162.648C398.528 162.652 398.532 162.657 398.537 162.664C398.548 162.677 398.562 162.696 398.581 162.72C398.619 162.769 398.674 162.838 398.746 162.927C398.889 163.104 399.1 163.357 399.375 163.672C399.924 164.3 400.731 165.171 401.771 166.155C403.847 168.121 406.869 170.558 410.639 172.408C414.412 174.26 418.956 175.533 424.049 175.132C429.15 174.73 434.724 172.655 440.556 167.935L439.298 166.381ZM399.05 161.073C377.016 167.189 366.757 187.105 361.963 204.196L363.889 204.736C368.625 187.847 378.59 168.827 399.584 163.001L399.05 161.073ZM361.962 204.198C359.389 213.467 357.959 223.035 357.707 232.675L359.707 232.727C359.955 223.251 361.359 213.845 363.89 204.734L361.962 204.198ZM358.707 232.701C358.059 231.939 358.06 231.939 358.06 231.939C358.06 231.939 358.06 231.938 358.06 231.938C358.06 231.938 358.061 231.938 358.061 231.938C358.061 231.938 358.06 231.938 358.06 231.939C358.058 231.94 358.056 231.942 358.051 231.946C358.043 231.953 358.029 231.964 358.009 231.98C357.969 232.012 357.906 232.062 357.82 232.128C357.649 232.258 357.387 232.451 357.035 232.687C356.331 233.16 355.272 233.808 353.872 234.49C351.071 235.853 346.909 237.35 341.499 237.849L341.683 239.841C347.367 239.316 351.763 237.741 354.747 236.288C356.239 235.562 357.378 234.866 358.151 234.347C358.537 234.087 358.831 233.872 359.033 233.718C359.133 233.642 359.211 233.581 359.264 233.537C359.291 233.515 359.312 233.498 359.327 233.486C359.335 233.48 359.341 233.474 359.345 233.471C359.348 233.469 359.35 233.467 359.351 233.466C359.352 233.465 359.353 233.465 359.353 233.464C359.354 233.464 359.354 233.464 359.354 233.463C359.354 233.463 359.355 233.463 358.707 232.701ZM341.504 237.849C331.304 238.736 316.511 236.01 297.907 221.668L296.685 223.252C315.621 237.85 330.9 240.778 341.678 239.841L341.504 237.849ZM297.905 221.667C278.433 206.697 259.936 201.261 246.285 199.577C239.462 198.735 233.853 198.832 229.942 199.14C227.986 199.294 226.453 199.502 225.405 199.672C224.881 199.757 224.477 199.833 224.202 199.888C224.065 199.915 223.959 199.938 223.887 199.953C223.851 199.961 223.823 199.968 223.803 199.972C223.794 199.974 223.786 199.976 223.78 199.977C223.778 199.978 223.775 199.979 223.774 199.979C223.773 199.979 223.772 199.979 223.771 199.979C223.771 199.98 223.77 199.98 224 200.953C224.23 201.926 224.23 201.926 224.229 201.926C224.229 201.926 224.229 201.926 224.23 201.926C224.23 201.926 224.231 201.926 224.232 201.926C224.235 201.925 224.24 201.924 224.247 201.922C224.261 201.919 224.284 201.914 224.314 201.907C224.375 201.894 224.469 201.874 224.595 201.849C224.847 201.798 225.226 201.727 225.725 201.646C226.723 201.484 228.201 201.284 230.099 201.134C233.894 200.835 239.367 200.739 246.04 201.562C259.379 203.207 277.53 208.524 296.686 223.253L297.905 221.667ZM224 200.953C224.986 201.12 224.986 201.12 224.986 201.12C224.986 201.119 224.986 201.119 224.986 201.119C224.986 201.118 224.987 201.116 224.987 201.114C224.988 201.109 224.989 201.102 224.991 201.093C224.994 201.074 224.999 201.045 225.005 201.007C225.019 200.931 225.039 200.817 225.066 200.667C225.12 200.368 225.201 199.926 225.311 199.358C225.53 198.222 225.861 196.583 226.307 194.578C227.2 190.565 228.555 185.089 230.401 179.236C232.248 173.378 234.581 167.164 237.424 161.664C240.275 156.15 243.599 151.433 247.394 148.49L246.168 146.91C242.039 150.111 238.554 155.124 235.647 160.746C232.733 166.383 230.361 172.714 228.494 178.634C226.626 184.558 225.257 190.091 224.355 194.143C223.904 196.17 223.569 197.827 223.347 198.98C223.236 199.556 223.153 200.006 223.098 200.312C223.07 200.466 223.049 200.583 223.035 200.663C223.028 200.703 223.023 200.733 223.02 200.754C223.018 200.764 223.016 200.772 223.016 200.777C223.015 200.78 223.015 200.782 223.014 200.784C223.014 200.784 223.014 200.785 223.014 200.785C223.014 200.786 223.014 200.786 224 200.953ZM247.394 148.49C263.445 136.044 275.414 120.492 295.247 73.3276L293.403 72.5524C273.616 119.606 261.813 134.778 246.168 146.91L247.394 148.49ZM295.247 73.3276C305.026 50.0714 319.873 41.3227 332.2 38.3238C338.388 36.8183 343.974 36.755 348.013 37.0689C350.031 37.2258 351.658 37.4765 352.777 37.6867C353.336 37.7918 353.767 37.8867 354.055 37.9545C354.2 37.9884 354.308 38.0155 354.379 38.0337C354.415 38.0428 354.441 38.0497 354.457 38.0541C354.466 38.0563 354.471 38.0579 354.475 38.0588C354.477 38.0593 354.478 38.0596 354.478 38.0597C354.478 38.0598 354.478 38.0598 354.478 38.0598C354.478 38.0597 354.478 38.0596 354.745 37.096C355.012 36.1324 355.012 36.1322 355.011 36.1319C355.01 36.1318 355.009 36.1315 355.008 36.1312C355.006 36.1307 355.004 36.13 355 36.1291C354.994 36.1273 354.985 36.1249 354.974 36.1219C354.951 36.1158 354.918 36.1073 354.877 36.0965C354.793 36.075 354.671 36.0446 354.513 36.0075C354.197 35.9333 353.736 35.8321 353.146 35.7212C351.966 35.4993 350.266 35.2381 348.168 35.0749C343.973 34.7488 338.168 34.8136 331.727 36.3805C318.797 39.5263 303.434 48.6996 293.403 72.5524L295.247 73.3276ZM354.745 37.096C355.723 37.3061 355.722 37.308 355.722 37.3098C355.722 37.3104 355.721 37.3122 355.721 37.3134C355.721 37.3157 355.72 37.3178 355.72 37.3198C355.719 37.3239 355.718 37.3274 355.717 37.3305C355.716 37.3365 355.714 37.3406 355.714 37.3427C355.713 37.3469 355.713 37.3435 355.717 37.333C355.725 37.3121 355.744 37.2629 355.783 37.1913C355.859 37.0493 356.015 36.8107 356.316 36.525C356.915 35.9557 358.133 35.1607 360.538 34.6148C365.382 33.5154 374.853 33.4692 393.13 38.0658L393.618 36.1262C375.247 31.5058 365.404 31.4596 360.095 32.6644C357.424 33.2706 355.856 34.2038 354.939 35.0747C354.481 35.5091 354.196 35.9185 354.021 36.2446C353.934 36.407 353.875 36.5468 353.835 36.6565C353.815 36.7112 353.801 36.7584 353.79 36.797C353.784 36.8162 353.78 36.8334 353.776 36.8482C353.774 36.8556 353.773 36.8625 353.771 36.8688C353.77 36.8719 353.77 36.8749 353.769 36.8778C353.769 36.8792 353.768 36.8812 353.768 36.8819C353.768 36.8839 353.767 36.8859 354.745 37.096ZM393.112 38.0612C401.885 40.4385 410.008 44.8872 416.842 51.0601L418.182 49.5759C411.118 43.1948 402.715 38.5915 393.636 36.1308L393.112 38.0612ZM416.856 51.0727C436.192 67.8821 445.592 93.9778 442.382 119.926L444.366 120.172C447.654 93.6041 438.037 66.8359 418.168 49.5633L416.856 51.0727Z" fill="black" fill-opacity="0.2" mask="url(#path-31-inside-1)"/>
</g>
<path id="Vector 30" d="M405.98 59.791C405.931 61.142 405.824 62.646 405.648 64.323C403.699 82.615 401.75 80.583 380.311 84.648C366.98 87.178 360.052 75.562 356.719 66.416C355.513 63.103 354.602 59.681 354 56.193L400.776 48.063C400.776 48.063 406.379 46.427 405.98 59.791Z" fill="#DB8B8B"/>
<path id="Vector 31" d="M293 130.196L314.681 184.536C314.681 184.536 316.652 200.94 326.507 210.168C326.507 210.168 341.29 226.573 343.261 235.8C345.232 245.028 372.826 269.635 372.826 269.635C372.826 269.635 398.449 294.241 400.42 303.469C400.42 303.469 424.072 310.646 421.116 325C421.116 325 438.855 306.545 421.116 289.115C403.377 271.685 379.725 235.8 379.725 235.8C379.725 235.8 365.928 197.865 353.116 186.586L349.174 175.308C349.174 175.308 355.087 142.499 335.377 127.12C315.667 111.74 293 130.196 293 130.196Z" fill="#DB8B8B"/>
<g id="Vector 32">
<path d="M336 84.718L350 141.773C350 141.773 307 149.034 298 141.773C289 134.511 272 132.437 272 132.437C272 132.437 290 78.494 300 72.27C310 66.046 336 84.718 336 84.718Z" fill="white"/>
<path d="M272.667 132.023C272.671 132.012 272.674 132.001 272.678 131.99C272.812 131.594 273.01 131.012 273.266 130.27C273.777 128.784 274.518 126.655 275.44 124.08C277.282 118.929 279.842 111.998 282.714 104.874C285.586 97.7485 288.767 90.4394 291.85 84.528C293.391 81.5719 294.903 78.9751 296.335 76.929C297.776 74.8706 299.104 73.4169 300.264 72.6945C302.592 71.2458 305.925 71.2097 309.733 72.0768C313.52 72.9392 317.667 74.6699 321.526 76.6069C325.381 78.5418 328.928 80.6718 331.513 82.3194C332.804 83.1428 333.855 83.845 334.581 84.3409C334.945 84.5888 335.227 84.7851 335.419 84.9192C335.473 84.9572 335.519 84.9901 335.559 85.0179L349.386 141.367C349.071 141.418 348.624 141.489 348.058 141.577C346.868 141.761 345.156 142.015 343.073 142.299C338.907 142.865 333.262 143.544 327.337 143.997C321.409 144.45 315.217 144.675 309.954 144.337C307.322 144.168 304.936 143.859 302.937 143.372C300.93 142.883 299.356 142.224 298.314 141.384C293.729 137.685 287.145 135.329 281.753 133.898C279.049 133.181 276.629 132.692 274.884 132.382C274.012 132.227 273.308 132.117 272.821 132.046C272.767 132.038 272.715 132.03 272.667 132.023Z" stroke="black" stroke-opacity="0.2"/>
</g>
<path id="Vector 33" d="M411.989 36.447C411.989 45.877 408.408 54.919 402.033 61.587C395.657 68.254 387.011 72 377.995 72C368.979 72 360.332 68.254 353.957 61.587C347.582 54.919 344 45.877 344 36.447C344 35.858 344 35.269 344 34.68C344.224 25.251 348.021 16.3009 354.554 9.7992C361.088 3.2975 369.824 -0.223403 378.84 0.0109968C387.856 0.245397 396.413 4.2159 402.63 11.049C408.847 17.8822 412.214 27.018 411.989 36.447Z" fill="#DB8B8B"/>
<path id="Vector 34" d="M297.05 520.931C302.42 517.831 307.13 514.731 307.54 513.449C307.54 513.449 321.09 528.226 333.16 532.814C337.219 534.363 341.104 536.359 344.75 538.766C349.53 541.866 356.35 545.514 362.54 545.514C362.54 545.514 376.54 557.914 349.54 559.981C322.54 562.048 259.54 554.814 259.54 554.814L263.54 528.98C275.227 529.689 286.864 526.893 297.05 520.931Z" fill="#ABB1D1"/>
</g>
</g>
</svg>
