<svg width="1397" height="716" viewBox="0 0 1397 716" fill="none" xmlns="http://www.w3.org/2000/svg">
<g id="undraw_pedestrian_crossing_l6jv 1" filter="url(#filter0_d)">
<g clip-path="url(#clip0)">
<g id="plant">
<path id="Vector" d="M1150.58 449.774C1150.58 449.774 1137.33 379.577 1088.18 344.778C1067.57 330.181 1052.44 310.337 1045.89 287.715C1042.78 277.004 1040.79 266.038 1039.95 254.968" stroke="#535461" stroke-width="2" stroke-miterlimit="10"/>
<path id="Vector_2" d="M1009.12 232.876C1013.26 240.405 1040.67 255.625 1040.67 255.625C1040.67 255.625 1044.12 227.192 1040 219.662C1035.87 212.133 1025.6 208.985 1017.07 212.64C1008.54 216.295 1004.99 225.358 1009.12 232.876Z" fill="#EAA78F"/>
<path id="Vector_3" d="M1006.57 285.512C1014.68 289.848 1047.06 289.456 1047.06 289.456C1047.06 289.456 1032.45 263.927 1024.28 259.592C1020.39 257.501 1015.8 256.866 1011.43 257.814C1007.06 258.761 1003.24 261.222 1000.73 264.7C999.573 266.405 998.806 268.315 998.475 270.311C998.143 272.306 998.255 274.344 998.803 276.297C999.352 278.25 1000.32 280.076 1001.66 281.662C1003 283.247 1004.67 284.558 1006.57 285.512V285.512Z" fill="#EAA78F"/>
<path id="Vector_4" d="M1046.76 356.297C1056.23 356.424 1083.96 341.654 1083.96 341.654C1083.96 341.654 1056.76 326.099 1047.24 325.995C1037.73 325.892 1029.99 332.545 1029.83 340.916C1029.67 349.287 1037.28 356.159 1046.76 356.297Z" fill="#EAA78F"/>
<path id="Vector_5" d="M1090.86 403.791C1100.18 405.336 1130.3 394.913 1130.3 394.913C1130.3 394.913 1106.45 375.553 1097.14 374.008C1087.84 372.463 1078.87 377.882 1077.13 386.115C1075.39 394.348 1081.55 402.2 1090.86 403.791Z" fill="#EAA78F"/>
<path id="Vector_6" d="M1080.2 277.037C1076.97 284.901 1051.47 302.531 1051.47 302.531C1051.47 302.531 1044.78 274.558 1047.96 266.695C1051.14 258.831 1061.03 254.772 1069.93 257.62C1078.83 260.468 1083.44 269.174 1080.2 277.037Z" fill="#EAA78F"/>
<path id="Vector_7" d="M1131.05 333.167C1125.29 339.809 1095 349.898 1095 349.898C1095 349.898 1098.03 321.418 1103.79 314.776C1106.67 311.553 1110.75 309.469 1115.21 308.94C1119.66 308.412 1124.17 309.48 1127.82 311.928C1129.59 313.073 1131.09 314.549 1132.23 316.263C1133.36 317.976 1134.1 319.891 1134.4 321.886C1134.71 323.882 1134.57 325.914 1133.99 327.855C1133.41 329.797 1132.41 331.605 1131.05 333.167V333.167Z" fill="#EAA78F"/>
<path id="Vector_8" d="M1171.87 393.702C1167.47 401.104 1139.54 415.609 1139.54 415.609C1139.54 415.609 1137.08 387.095 1141.48 379.681C1143.75 376.068 1147.4 373.397 1151.7 372.209C1156 371.021 1160.61 371.405 1164.62 373.281C1166.58 374.128 1168.33 375.341 1169.76 376.845C1171.2 378.348 1172.29 380.111 1172.97 382.025C1173.65 383.938 1173.9 385.961 1173.71 387.97C1173.52 389.978 1172.89 391.929 1171.87 393.702V393.702Z" fill="#EAA78F"/>
<path id="Vector_9" opacity="0.25" d="M1009.12 232.876C1013.26 240.405 1040.67 255.625 1040.67 255.625C1040.67 255.625 1044.12 227.192 1040 219.662C1035.87 212.133 1025.6 208.985 1017.07 212.64C1008.54 216.295 1004.99 225.358 1009.12 232.876Z" fill="black"/>
<path id="Vector_10" opacity="0.25" d="M1006.57 285.512C1014.68 289.848 1047.06 289.456 1047.06 289.456C1047.06 289.456 1032.45 263.927 1024.28 259.592C1020.39 257.501 1015.8 256.866 1011.43 257.814C1007.06 258.761 1003.24 261.222 1000.73 264.7C999.573 266.405 998.806 268.315 998.475 270.311C998.143 272.306 998.255 274.344 998.803 276.297C999.352 278.25 1000.32 280.076 1001.66 281.662C1003 283.247 1004.67 284.558 1006.57 285.512V285.512Z" fill="black"/>
<path id="Vector_11" opacity="0.25" d="M1046.76 356.297C1056.23 356.424 1083.96 341.654 1083.96 341.654C1083.96 341.654 1056.76 326.099 1047.24 325.995C1037.73 325.892 1029.99 332.545 1029.83 340.916C1029.67 349.287 1037.28 356.159 1046.76 356.297Z" fill="black"/>
<path id="Vector_12" opacity="0.25" d="M1090.86 403.791C1100.18 405.336 1130.3 394.913 1130.3 394.913C1130.3 394.913 1106.45 375.553 1097.14 374.008C1087.84 372.463 1078.87 377.882 1077.13 386.115C1075.39 394.348 1081.55 402.2 1090.86 403.791Z" fill="black"/>
<path id="Vector_13" opacity="0.25" d="M1080.2 277.037C1076.97 284.901 1051.47 302.531 1051.47 302.531C1051.47 302.531 1044.78 274.558 1047.96 266.695C1051.14 258.831 1061.03 254.772 1069.93 257.62C1078.83 260.468 1083.44 269.174 1080.2 277.037Z" fill="black"/>
<path id="Vector_14" opacity="0.25" d="M1131.05 333.167C1125.29 339.809 1095 349.898 1095 349.898C1095 349.898 1098.03 321.418 1103.79 314.776C1106.67 311.553 1110.75 309.469 1115.21 308.94C1119.66 308.412 1124.17 309.48 1127.82 311.928C1129.59 313.073 1131.09 314.549 1132.23 316.263C1133.36 317.976 1134.1 319.891 1134.4 321.886C1134.71 323.882 1134.57 325.914 1133.99 327.855C1133.41 329.797 1132.41 331.605 1131.05 333.167V333.167Z" fill="black"/>
<path id="Vector_15" opacity="0.25" d="M1171.87 393.702C1167.47 401.104 1139.54 415.609 1139.54 415.609C1139.54 415.609 1137.08 387.095 1141.48 379.681C1143.75 376.068 1147.4 373.397 1151.7 372.209C1156 371.021 1160.61 371.405 1164.62 373.281C1166.58 374.128 1168.33 375.341 1169.76 376.845C1171.2 378.348 1172.29 380.111 1172.97 382.025C1173.65 383.938 1173.9 385.961 1173.71 387.97C1173.52 389.978 1172.89 391.929 1171.87 393.702V393.702Z" fill="black"/>
<path id="Vector_16" d="M1148.92 447.929C1148.92 447.929 1169.02 379.012 1140.05 329.604C1127.88 308.85 1123.2 285.328 1127.55 262.302C1129.66 251.347 1132.9 240.609 1137.21 230.236" stroke="#535461" stroke-width="2" stroke-miterlimit="10"/>
<path id="Vector_17" d="M1119.09 199.011C1119.43 207.371 1137.51 231.1 1137.51 231.1C1137.51 231.1 1153.71 206.333 1153.38 197.962C1153.05 189.591 1145.12 183.065 1135.65 183.342C1126.17 183.618 1118.72 190.652 1119.09 199.011Z" fill="#EAA78F"/>
<path id="Vector_18" d="M1092.57 246.194C1097.98 253.054 1127.77 264.285 1127.77 264.285C1127.77 264.285 1126.12 235.724 1120.71 228.852C1117.97 225.523 1113.98 223.286 1109.55 222.589C1105.13 221.892 1100.58 222.786 1096.82 225.093C1095 226.165 1093.43 227.578 1092.22 229.244C1091 230.91 1090.17 232.793 1089.77 234.774C1089.37 236.756 1089.41 238.793 1089.9 240.758C1090.38 242.723 1091.29 244.573 1092.57 246.194V246.194Z" fill="#EAA78F"/>
<path id="Vector_19" d="M1096.89 325.304C1105.51 328.763 1137.62 325.234 1137.62 325.234C1137.62 325.234 1119.87 301.309 1111.27 297.792C1102.67 294.275 1092.49 297.596 1088.5 305.195C1084.52 312.793 1088.28 321.798 1096.89 325.304Z" fill="#EAA78F"/>
<path id="Vector_20" d="M1115.42 384.512C1123.22 389.251 1155.57 390.519 1155.57 390.519C1155.57 390.519 1142.66 364.288 1134.86 359.537C1131.09 357.253 1126.54 356.385 1122.12 357.108C1117.69 357.831 1113.73 360.09 1111.01 363.435C1109.73 365.062 1108.83 366.919 1108.36 368.889C1107.89 370.858 1107.87 372.897 1108.28 374.877C1108.7 376.858 1109.54 378.736 1110.77 380.394C1112 382.053 1113.58 383.455 1115.42 384.512V384.512Z" fill="#EAA78F"/>
<path id="Vector_21" d="M1163.82 264.815C1157.26 270.846 1125.86 277.845 1125.86 277.845C1125.86 277.845 1132.53 249.849 1139.1 243.818C1142.34 240.909 1146.64 239.249 1151.13 239.17C1155.62 239.091 1159.98 240.598 1163.34 243.392C1164.95 244.724 1166.25 246.355 1167.16 248.182C1168.07 250.009 1168.56 251.992 1168.6 254.005C1168.65 256.018 1168.25 258.018 1167.42 259.879C1166.6 261.74 1165.37 263.421 1163.82 264.815V264.815Z" fill="#EAA78F"/>
<path id="Vector_22" d="M1184.5 334.297C1176.19 338.321 1143.83 336.707 1143.83 336.707C1143.83 336.707 1159.67 311.755 1167.97 307.731C1171.94 305.783 1176.56 305.319 1180.88 306.434C1185.2 307.55 1188.91 310.161 1191.25 313.739C1192.33 315.487 1193.01 317.424 1193.25 319.429C1193.49 321.434 1193.29 323.464 1192.66 325.392C1192.02 327.321 1190.97 329.106 1189.57 330.638C1188.17 332.17 1186.44 333.416 1184.5 334.297V334.297Z" fill="#EAA78F"/>
<path id="Vector_23" d="M1194.1 404.275C1186.71 409.487 1154.5 412.704 1154.5 412.704C1154.5 412.704 1165.35 385.757 1172.77 380.557C1176.37 378.049 1180.86 376.905 1185.32 377.356C1189.79 377.808 1193.91 379.82 1196.86 382.99C1198.26 384.524 1199.3 386.312 1199.92 388.241C1200.54 390.17 1200.72 392.199 1200.46 394.198C1200.2 396.198 1199.51 398.126 1198.41 399.86C1197.32 401.594 1195.85 403.098 1194.1 404.275V404.275Z" fill="#EAA78F"/>
</g>
<path id="Vector_24" d="M315.67 490.342L156.19 674.182C126.274 668.446 96.9491 660.279 68.5505 649.772C46.3663 641.378 25.0818 631.001 8 618.502L183.132 484L315.67 490.342Z" fill="#65617D"/>
<path id="Vector_25" d="M1374.23 650.013C1368.97 655.712 1362.95 660.751 1356.32 665.003C1326.27 684.432 1283.52 692.468 1242.11 697.542C1232.9 698.672 1223.66 699.69 1214.39 700.597L1045 505.342L1177.59 499L1374.23 650.013Z" fill="#65617D"/>
<path id="Vector_26" d="M1044.95 702.212C1036.62 702.419 1028.28 702.615 1019.94 702.8C961.29 704.149 902.588 705.498 843.899 706.478L775.14 501.802H903.673L1044.95 702.212Z" fill="#65617D"/>
<path id="Vector_27" opacity="0.1" d="M315.67 490.342L156.19 674.182C126.274 668.446 96.9491 660.279 68.5505 649.772C46.3663 641.378 25.0818 631.001 8 618.502L183.132 484L315.67 490.342Z" fill="black"/>
<path id="Vector_28" opacity="0.1" d="M1374.23 650.013C1368.97 655.712 1362.95 660.751 1356.32 665.003C1326.27 684.432 1283.52 692.468 1242.11 697.542C1232.9 698.672 1223.66 699.69 1214.39 700.597L1045 505.342L1177.59 499L1374.23 650.013Z" fill="black"/>
<path id="Vector_29" opacity="0.1" d="M1044.95 702.212C1036.62 702.419 1028.28 702.615 1019.94 702.8C961.29 704.149 902.588 705.498 843.899 706.478L775.14 501.802H903.673L1044.95 702.212Z" fill="black"/>
<path id="Vector_30" opacity="0.1" d="M1044.95 702.212C1036.62 702.419 1028.28 702.615 1019.94 702.8C961.29 704.149 902.588 705.498 843.899 706.478L775.14 501.802H903.673L1044.95 702.212Z" fill="black"/>
<path id="Vector_31" d="M713.85 587.692C714.361 587.692 714.775 587.305 714.775 586.827C714.775 586.35 714.361 585.962 713.85 585.962C713.34 585.962 712.926 586.35 712.926 586.827C712.926 587.305 713.34 587.692 713.85 587.692Z" fill="white"/>
<path id="Vector_32" d="M707.454 586.827C707.964 586.827 708.378 586.44 708.378 585.962C708.378 585.485 707.964 585.098 707.454 585.098C706.943 585.098 706.529 585.485 706.529 585.962C706.529 586.44 706.943 586.827 707.454 586.827Z" fill="white"/>
<path id="Vector_33" d="M713.85 587.692C714.361 587.692 714.775 587.305 714.775 586.827C714.775 586.35 714.361 585.962 713.85 585.962C713.34 585.962 712.926 586.35 712.926 586.827C712.926 587.305 713.34 587.692 713.85 587.692Z" fill="white"/>
<path id="Vector_34" d="M707.454 586.827C707.964 586.827 708.378 586.44 708.378 585.962C708.378 585.485 707.964 585.098 707.454 585.098C706.943 585.098 706.529 585.485 706.529 585.962C706.529 586.44 706.943 586.827 707.454 586.827Z" fill="white"/>
<path id="Vector_35" d="M1111.56 456.877C1111.56 456.877 1133.29 456.254 1139.84 451.884C1146.38 447.514 1173.24 442.325 1174.86 449.313C1176.49 456.3 1207.46 484.065 1182.98 484.285C1158.51 484.504 1126.01 480.71 1119.48 476.986C1112.94 473.261 1111.56 456.877 1111.56 456.877Z" fill="#A8A8A8"/>
<path id="Vector_36" opacity="0.2" d="M1183.42 481.852C1158.9 482.036 1126.45 478.277 1119.92 474.553C1114.99 471.716 1112.96 461.547 1112.29 456.854H1111.56C1111.56 456.854 1112.94 473.238 1119.48 476.963C1126.01 480.687 1158.46 484.446 1182.98 484.261C1190.06 484.204 1192.51 481.852 1192.38 478.358C1191.44 480.491 1188.69 481.759 1183.42 481.852Z" fill="black"/>
<path id="Vector_37" d="M724.979 511.372L724.696 516.55L724.61 517.979L718.571 627.518V627.656L717.942 640.294L717.622 645.955L713.69 717.443C644.562 716.948 575.495 715.345 506.539 712.001L593.809 511.43L724.979 511.372Z" fill="#65617D"/>
<path id="Vector_38" d="M482.506 491.194L482.258 496.756L418.418 616.044H451.665L476.901 616.119L418.418 616.044L367.795 709.695C307.341 709.162 296.935 683.885 236.631 680.292L367.795 491.256L482.506 491.194Z" fill="#65617D"/>
</g>
</g>
<defs>
<filter id="filter0_d" x="-4" y="0" width="1405" height="716" filterUnits="userSpaceOnUse" color-interpolation-filters="sRGB">
<feFlood flood-opacity="0" result="BackgroundImageFix"/>
<feColorMatrix in="SourceAlpha" type="matrix" values="0 0 0 0 0 0 0 0 0 0 0 0 0 0 0 0 0 0 127 0"/>
<feOffset dy="4"/>
<feGaussianBlur stdDeviation="2"/>
<feColorMatrix type="matrix" values="0 0 0 0 0 0 0 0 0 0 0 0 0 0 0 0 0 0 0.25 0"/>
<feBlend mode="normal" in2="BackgroundImageFix" result="effect1_dropShadow"/>
<feBlend mode="normal" in="SourceGraphic" in2="effect1_dropShadow" result="shape"/>
</filter>
<clipPath id="clip0">
<rect width="1397" height="708" fill="white"/>
</clipPath>
</defs>
</svg>
